<?xml version="1.0" encoding="iso-8859-1"?>
<!-- Generator: Adobe Illustrator 19.0.0, SVG Export Plug-In . SVG Version: 6.00 Build 0)  -->
<svg version="1.1" id="Layer_1" xmlns="http://www.w3.org/2000/svg" xmlns:xlink="http://www.w3.org/1999/xlink" x="0px" y="0px"
	 viewBox="0 0 512 512" style="enable-background:new 0 0 512 512;" xml:space="preserve">
<g>
	<g>
		<path d="M437.019,74.981C388.667,26.628,324.379,0,256,0S123.333,26.628,74.982,74.981C26.628,123.333,0,187.621,0,256
			s26.628,132.667,74.982,181.019C123.333,485.372,187.621,512,256,512s132.667-26.628,181.019-74.981S512,324.379,512,256
			S485.372,123.333,437.019,74.981z M256,495.832C123.756,495.832,16.168,388.244,16.168,256S123.756,16.168,256,16.168
			S495.832,123.756,495.832,256S388.244,495.832,256,495.832z"/>
	</g>
</g>
<g>
	<g>
		<path d="M367.315,306.479c-2.693-1.386-5.936-1.149-8.398,0.61l-28.177,20.126l-70.754-50.538c-2.811-2.007-6.588-2.007-9.398,0
			l-70.754,50.538l-28.177-20.126c-2.465-1.759-5.705-1.995-8.398-0.61c-2.693,1.386-4.385,4.16-4.385,7.188v36.366
			c0,2.594,1.245,5.031,3.347,6.551l108.328,78.318c1.414,1.022,3.076,1.533,4.737,1.533c1.661,0,3.323-0.512,4.738-1.533
			l108.328-78.318c2.102-1.521,3.347-3.957,3.347-6.551v-36.366C371.7,310.638,370.008,307.865,367.315,306.479z M355.531,345.902
			l-100.244,72.473l-100.244-72.473h-0.002v-16.526l20.093,14.352c2.811,2.007,6.588,2.007,9.398,0l70.754-50.538l70.754,50.538
			c2.811,2.007,6.588,2.007,9.398,0l20.093-14.352V345.902z"/>
	</g>
</g>
<g>
	<g>
		<path d="M411.604,251.577l-66.242-47.316l66.243-47.316c2.125-1.518,3.386-3.968,3.386-6.578s-1.261-5.061-3.386-6.578
			l-75.453-53.895c-2.81-2.007-6.587-2.007-9.398,0L256,140.431l-70.754-50.538c-2.81-2.007-6.587-2.007-9.398,0l-75.453,53.895
			c-2.123,1.518-3.385,3.968-3.385,6.578s1.261,5.061,3.386,6.578l66.243,47.316l-66.243,47.316
			c-2.125,1.518-3.386,3.968-3.386,6.578c0,2.611,1.261,5.061,3.386,6.578l75.453,53.895c1.406,1.004,3.053,1.506,4.699,1.506
			s3.294-0.502,4.699-1.506L256,268.091l70.754,50.538c1.406,1.004,3.053,1.506,4.699,1.506c1.646,0,3.294-0.502,4.699-1.506
			l75.453-53.895c2.125-1.518,3.386-3.968,3.386-6.578C414.989,255.545,413.728,253.095,411.604,251.577z M331.453,106.407
			l61.545,43.96l-61.545,43.96l-61.545-43.96L331.453,106.407z M119.003,150.366l61.545-43.96l61.545,43.96l-61.545,43.96
			L119.003,150.366z M180.547,302.116l-61.545-43.96l61.545-43.96l61.545,43.96L180.547,302.116z M331.453,302.116l-61.545-43.96
			l18.405-13.146c4.065-2.904,4.55-8.762,1.018-12.294c-2.794-2.794-7.199-3.159-10.415-0.862L256,248.221l-61.543-43.96
			L256,160.301l61.544,43.96l-6.143,4.387c-4.065,2.904-4.55,8.762-1.018,12.294c2.795,2.795,7.199,3.159,10.416,0.862l10.654-7.61
			l61.545,43.96L331.453,302.116z"/>
	</g>
</g>
<g>
</g>
<g>
</g>
<g>
</g>
<g>
</g>
<g>
</g>
<g>
</g>
<g>
</g>
<g>
</g>
<g>
</g>
<g>
</g>
<g>
</g>
<g>
</g>
<g>
</g>
<g>
</g>
<g>
</g>
</svg>
