<svg width="49" height="48" viewBox="0 0 49 48" fill="none" xmlns="http://www.w3.org/2000/svg">
<g clip-path="url(#clip0_240_7358)">
<path d="M29.7727 17.9282C28.7557 17.9282 28.0027 18.1847 27.4132 18.5087C27.3187 18.1727 27.0082 17.9267 26.6422 18.0002H22.1662C21.7237 17.9267 21.3652 18.2852 21.5017 18.7502V35.2502C21.3652 35.6702 21.7237 36.0302 22.1662 36.0002H26.6422C27.0847 36.0302 27.4432 35.6702 27.4432 35.2277L27.4417 25.2557C27.4402 25.2512 27.4237 24.7742 27.7252 24.4457C27.9667 24.1847 28.3822 24.0512 28.9567 24.0512C29.9137 24.0512 30.3397 24.4427 30.4987 25.3187V35.2277C30.3412 35.6702 30.6997 36.0302 31.1422 36.0002H35.8597C36.3022 36.0302 36.6607 35.6702 36.5017 35.2277V24.9857C36.6592 19.7777 32.9497 17.9282 29.7727 17.9282ZM35.0572 34.5002H31.9432V25.3187C31.9432 23.5472 30.7987 22.4492 28.9582 22.4492C27.9172 22.4492 27.1072 22.7552 26.5492 23.3582C25.7737 24.1982 25.8337 25.2632 26.0002 25.5002V34.5002H22.9672V19.5302H25.8412V20.0342C25.84 20.1844 25.8813 20.3318 25.9601 20.4596C26.039 20.5873 26.1523 20.6903 26.287 20.7565C26.4217 20.8228 26.5724 20.8497 26.7217 20.8342C26.8711 20.8186 27.013 20.7613 27.1312 20.6687L27.3412 20.5067C27.9487 20.0282 28.5772 19.5317 29.7742 19.5317C31.0132 19.5317 35.0587 19.9262 35.0587 24.9872V34.5002H35.0572ZM17.0002 10.4492C15.3172 10.4492 13.9492 11.8172 13.9492 13.5002C13.9492 15.1832 15.3172 16.5512 17.0002 16.5512C18.6832 16.5512 20.0512 15.1832 20.0512 13.5002C20.0512 11.8172 18.6832 10.4492 17.0002 10.4492ZM17.0002 14.9492C16.2022 14.9492 15.5512 14.2982 15.5512 13.5002C15.5512 12.7022 16.2022 12.0512 17.0002 12.0512C17.7982 12.0512 18.4492 12.7022 18.4492 13.5002C18.4492 14.2982 17.7982 14.9492 17.0002 14.9492ZM19.1422 17.9267H14.6902C14.2477 17.9267 13.8892 18.2852 14.0002 18.7502V35.2502C13.8892 35.6702 14.2477 36.0302 14.6902 36.0002H19.1422C19.5847 36.0302 19.9432 35.6702 19.9432 35.2277V18.7277C19.9432 18.5153 19.8588 18.3115 19.7086 18.1613C19.5584 18.0111 19.3547 17.9267 19.1422 17.9267ZM18.5002 34.5002H15.4912V19.5302H18.5002V34.5002Z" fill="#F2F3F8"/>
<path d="M24.5002 -0.0507812C11.2372 -0.0507812 0.449219 10.7372 0.449219 24.0002C0.449219 37.2632 11.2372 48.0512 24.5002 48.0512C37.7632 48.0512 48.5512 37.2632 48.5512 24.0002C48.5512 10.7372 37.7632 -0.0507812 24.5002 -0.0507812ZM24.5002 46.4492C12.1222 46.4492 2.05122 36.3782 2.05122 24.0002C2.05122 11.6222 12.1222 1.55122 24.5002 1.55122C36.8782 1.55122 46.9492 11.6222 46.9492 24.0002C46.9492 36.3782 36.8782 46.4492 24.5002 46.4492Z" fill="#F2F3F8"/>
</g>
<defs>
<clipPath id="clip0_240_7358">
<rect width="48" height="48" fill="white" transform="translate(0.5)"/>
</clipPath>
</defs>
</svg>
