<svg width="49" height="48" viewBox="0 0 49 48" fill="none" xmlns="http://www.w3.org/2000/svg">
<g clip-path="url(#clip0_240_7362)">
<path d="M24.4998 -0.0507812C11.2383 -0.0507812 0.447266 10.7372 0.447266 24.0002C0.447266 37.2632 11.2383 48.0512 24.4998 48.0512C37.7613 48.0512 48.5523 37.2632 48.5523 24.0002C48.5523 10.7372 37.7613 -0.0507812 24.4998 -0.0507812ZM24.4998 46.4492C12.1218 46.4492 2.05227 36.3782 2.05227 24.0002C2.05227 11.6222 12.1218 1.55122 24.4998 1.55122C36.8778 1.55122 46.9473 11.6222 46.9473 24.0002C46.9473 36.3782 36.8778 46.4492 24.4998 46.4492Z" fill="#F2F3F8"/>
<path d="M37.6906 16.5692C37.8569 16.2612 37.994 15.9383 38.1 15.6047C38.1491 15.45 38.1501 15.284 38.1029 15.1287C38.0557 14.9733 37.9624 14.836 37.8355 14.7348C37.7086 14.6335 37.554 14.5732 37.3921 14.5616C37.2301 14.5501 37.0685 14.588 36.9286 14.6702C36.1599 15.1268 35.3279 15.467 34.4595 15.6797C33.4055 14.7284 32.0365 14.201 30.6166 14.1992C29.8451 14.1998 29.0818 14.3562 28.3722 14.6589C27.6627 14.9617 27.0216 15.4046 26.4874 15.9611C25.9531 16.5176 25.5368 17.1762 25.2632 17.8975C24.9897 18.6188 24.8647 19.3879 24.8956 20.1587C21.5221 19.734 18.4416 18.027 16.2931 15.3917C16.2107 15.2919 16.1055 15.2134 15.9864 15.1629C15.8672 15.1124 15.7377 15.0914 15.6087 15.1018C15.4797 15.1121 15.3551 15.1534 15.2455 15.2221C15.1359 15.2909 15.0445 15.3851 14.9791 15.4967C14.4871 16.3411 14.2197 17.2975 14.2024 18.2746C14.185 19.2517 14.4183 20.2169 14.8801 21.0782C14.7668 21.0973 14.658 21.137 14.5591 21.1952C14.4378 21.2726 14.3379 21.3792 14.2687 21.5053C14.1995 21.6314 14.1632 21.7729 14.1631 21.9167C14.1631 23.6192 14.9206 25.1822 16.1416 26.2442L16.0891 26.2967C15.9969 26.401 15.9335 26.5275 15.905 26.6637C15.8766 26.8 15.8842 26.9413 15.9271 27.0737C16.1817 27.868 16.6068 28.5971 17.1727 29.2098C17.7385 29.8226 18.4315 30.3043 19.2031 30.6212C17.6184 31.3942 15.8451 31.6957 14.0941 31.4897C13.9141 31.4714 13.7331 31.5133 13.5794 31.6088C13.4258 31.7044 13.3082 31.8482 13.2451 32.0177C13.1844 32.1885 13.1833 32.3748 13.2418 32.5464C13.3004 32.7179 13.4151 32.8646 13.5676 32.9627C15.9481 34.4905 18.7174 35.3022 21.5461 35.3012C30.8161 35.3012 36.3571 27.7712 36.3571 20.4917L36.3555 20.2457C37.2539 19.5443 38.0343 18.7037 38.667 17.7557C38.7629 17.6124 38.81 17.442 38.8014 17.2699C38.7929 17.0977 38.7291 16.9328 38.6196 16.7997C38.51 16.6666 38.3605 16.5723 38.1932 16.5308C38.0259 16.4893 37.8496 16.5028 37.6906 16.5692ZM35.0731 19.2017C34.9642 19.28 34.8767 19.3843 34.8185 19.5051C34.7604 19.6259 34.7334 19.7593 34.7401 19.8932C34.7491 20.0912 34.7536 20.2922 34.7536 20.4902C34.7536 26.9822 29.8141 33.6977 21.5476 33.6977C20.0732 33.6984 18.6093 33.4509 17.2171 32.9657C18.8844 32.6462 20.4508 31.9312 21.7845 30.8807C21.9144 30.7784 22.0094 30.6384 22.0567 30.4799C22.104 30.3215 22.1011 30.1523 22.0486 29.9956C21.9961 29.8388 21.8964 29.7021 21.7632 29.6041C21.63 29.5061 21.4698 29.4517 21.3046 29.4482C20.6578 29.4359 20.023 29.2717 19.4513 28.9689C18.8797 28.6662 18.3872 28.2333 18.0136 27.7052C18.3931 27.6797 18.7651 27.6167 19.1266 27.5192C19.3015 27.4724 19.4554 27.3677 19.5632 27.2221C19.671 27.0765 19.7262 26.8987 19.72 26.7177C19.7137 26.5367 19.6463 26.3632 19.5287 26.2254C19.4111 26.0877 19.2503 25.9938 19.0726 25.9592C18.3421 25.8106 17.6658 25.4662 17.1159 24.9629C16.5661 24.4596 16.1634 23.8162 15.9511 23.1017C16.3501 23.2022 16.7596 23.2607 17.1691 23.2742C17.5216 23.2727 17.8486 23.0567 17.9581 22.7177C18.0676 22.3787 17.9386 22.0052 17.6401 21.8072C16.9343 21.337 16.3908 20.6603 16.084 19.8697C15.7771 19.0791 15.7218 18.213 15.9256 17.3897C18.5311 20.0632 22.0494 21.6552 25.7775 21.8477C26.0415 21.8492 26.2726 21.7547 26.4331 21.5612C26.5935 21.3677 26.6551 21.1112 26.5981 20.8652C26.3929 19.9817 26.4847 19.0552 26.8591 18.2291C27.2336 17.403 27.8699 16.7234 28.6696 16.2954C29.4692 15.8674 30.3877 15.7148 31.2828 15.8614C32.1778 16.008 32.9997 16.4455 33.621 17.1062C33.7142 17.2056 33.8311 17.2796 33.9607 17.3213C34.0903 17.3631 34.2285 17.3711 34.3621 17.3447C34.6096 17.2952 34.854 17.2382 35.0956 17.1722C34.9867 17.2537 34.8735 17.3293 34.7565 17.3987C34.601 17.494 34.4826 17.6394 34.4207 17.811C34.3589 17.9827 34.3574 18.1702 34.4164 18.3428C34.4755 18.5154 34.5916 18.6627 34.7455 18.7605C34.8995 18.8583 35.0822 18.9007 35.2636 18.8807L35.5366 18.8462C35.3862 18.9701 35.2316 19.0886 35.0731 19.2017Z" fill="#F2F3F8"/>
</g>
<defs>
<clipPath id="clip0_240_7362">
<rect width="48" height="48" fill="white" transform="translate(0.5)"/>
</clipPath>
</defs>
</svg>
