<svg width="84" height="78" viewBox="0 0 84 78" fill="none" xmlns="http://www.w3.org/2000/svg">
<g clip-path="url(#clip0_447_3419)">
<path d="M21.208 32.9272C21.208 43.9809 42.2247 52.9417 27.2016 52.9417C12.1786 52.9417 0 43.9809 0 32.9272C0 21.8734 12.1786 12.9126 27.2016 12.9126C42.2247 12.9126 21.208 21.8734 21.208 32.9272Z" fill="#CE1949"/>
<path d="M22.3645 32.9272C22.3645 43.9809 49.6797 52.9417 34.6567 52.9417C19.6337 52.9417 7.45508 43.9809 7.45508 32.9272C7.45508 21.8734 19.6337 12.9126 34.6567 12.9126C49.6797 12.9126 22.3645 21.8734 22.3645 32.9272Z" fill="#677EE2"/>
<path d="M24.2277 32.9272C24.2277 43.9809 56.2022 52.9417 41.1792 52.9417C26.1561 52.9417 13.9775 43.9809 13.9775 32.9272C13.9775 21.8734 26.1561 12.9126 41.1792 12.9126C56.2022 12.9126 24.2277 21.8734 24.2277 32.9272Z" fill="#022924"/>
<path d="M19.4453 30.6021L55.5244 0L84.0003 33.5723L47.9212 64.1744L19.4453 30.6021Z" fill="#5EAE5C"/>
<path d="M28.4072 32.2815L56.1935 8.71338L76.1839 32.2815L48.3976 55.8497L28.4072 32.2815Z" fill="#CFE7CE"/>
<path d="M31.8525 32.6448L55.6758 12.438L72.8911 32.7344L49.0678 52.9412L31.8525 32.6448Z" fill="#031B02"/>
<path d="M56.7966 29.1378C56.7086 28.2501 56.3309 27.5605 55.6632 27.0689C54.9956 26.5773 54.0895 26.3316 52.945 26.3316C52.1673 26.3316 51.5105 26.4416 50.975 26.6617C50.4394 26.8745 50.0286 27.1716 49.7425 27.5531C49.4637 27.9346 49.3242 28.3675 49.3242 28.8517C49.3095 29.2552 49.394 29.6074 49.5774 29.9082C49.7682 30.209 50.0285 30.4695 50.3587 30.6896C50.6888 30.9023 51.0704 31.0894 51.5033 31.2508C51.9362 31.4049 52.3984 31.537 52.8899 31.647L54.9148 32.1312C55.8979 32.3513 56.8004 32.6448 57.6221 33.0116C58.4438 33.3785 59.1554 33.8297 59.757 34.3653C60.3586 34.9008 60.8246 35.5318 61.1547 36.2581C61.4922 36.9845 61.6646 37.8172 61.672 38.7563C61.6646 40.1356 61.3124 41.3315 60.6154 42.3439C59.9257 43.3491 58.9281 44.1304 57.6221 44.688C56.3235 45.2383 54.7571 45.5134 52.923 45.5134C51.1035 45.5134 49.5187 45.2346 48.1688 44.677C46.8262 44.1194 45.777 43.294 45.0213 42.2009C44.273 41.1004 43.8804 39.7394 43.8438 38.118H48.4548C48.5062 38.8737 48.7226 39.5046 49.1041 40.0109C49.4929 40.5098 50.0102 40.8876 50.6558 41.1444C51.3088 41.3938 52.0462 41.5186 52.8679 41.5186C53.675 41.5186 54.3755 41.4012 54.9698 41.1664C55.5714 40.9316 56.0374 40.6051 56.3675 40.1869C56.6977 39.7687 56.8628 39.2882 56.8628 38.7453C56.8628 38.239 56.7123 37.8135 56.4115 37.4687C56.118 37.1239 55.6851 36.8304 55.1129 36.5883C54.5479 36.3462 53.8547 36.1261 53.033 35.928L50.5788 35.3117C48.6786 34.8495 47.1783 34.1268 46.0778 33.1437C44.9773 32.1606 44.4306 30.8363 44.438 29.1709C44.4306 27.8062 44.7938 26.614 45.5275 25.5942C46.2685 24.5744 47.2847 23.7784 48.576 23.2061C49.8672 22.6339 51.3346 22.3477 52.978 22.3477C54.6508 22.3477 56.1107 22.6339 57.3579 23.2061C58.6125 23.7784 59.5884 24.5744 60.2853 25.5942C60.9823 26.614 61.3418 27.7952 61.3638 29.1378H56.7966Z" fill="#E47293"/>
<path d="M21.203 41.3206H14.5449V22.5386H21.258C23.1472 22.5386 24.7735 22.9146 26.1369 23.6666C27.5003 24.4125 28.5489 25.4855 29.2825 26.8856C30.0223 28.2857 30.3922 29.9609 30.3922 31.9112C30.3922 33.8677 30.0223 35.549 29.2825 36.9552C28.5489 38.3614 27.4942 39.4405 26.1186 40.1925C24.7491 40.9446 23.1105 41.3206 21.203 41.3206ZM18.5159 37.9182H21.0379C22.2118 37.9182 23.1992 37.7103 24.0001 37.2945C24.8072 36.8727 25.4124 36.2215 25.8159 35.3411C26.2256 34.4546 26.4304 33.3113 26.4304 31.9112C26.4304 30.5234 26.2256 29.3892 25.8159 28.5088C25.4124 27.6284 24.8102 26.9803 24.0093 26.5646C23.2084 26.1489 22.221 25.941 21.0471 25.941H18.5159V37.9182Z" fill="white"/>
<path d="M17.8165 74.1741H15.1533V66.6613H17.8385C18.5942 66.6613 19.2447 66.8117 19.7901 67.1125C20.3354 67.4109 20.7548 67.8401 21.0483 68.4001C21.3442 68.9602 21.4922 69.6302 21.4922 70.4104C21.4922 71.193 21.3442 71.8655 21.0483 72.428C20.7548 72.9905 20.333 73.4221 19.7827 73.7229C19.2349 74.0237 18.5795 74.1741 17.8165 74.1741ZM16.7417 72.8132H17.7505C18.22 72.8132 18.615 72.73 18.9353 72.5637C19.2582 72.395 19.5003 72.1345 19.6617 71.7823C19.8255 71.4277 19.9075 70.9704 19.9075 70.4104C19.9075 69.8552 19.8255 69.4016 19.6617 69.0494C19.5003 68.6973 19.2594 68.438 18.939 68.2717C18.6186 68.1054 18.2237 68.0223 17.7541 68.0223H16.7417V72.8132ZM24.2462 74.2805C23.8867 74.2805 23.5663 74.2181 23.2851 74.0934C23.0039 73.9662 22.7813 73.7792 22.6175 73.5322C22.456 73.2827 22.3753 72.9721 22.3753 72.6004C22.3753 72.2874 22.4328 72.0245 22.5478 71.8117C22.6627 71.5989 22.8192 71.4277 23.0173 71.2981C23.2154 71.1685 23.4404 71.0707 23.6923 71.0047C23.9466 70.9386 24.2132 70.8922 24.492 70.8653C24.8197 70.831 25.0838 70.7992 25.2843 70.7699C25.4849 70.7381 25.6304 70.6916 25.7209 70.6305C25.8114 70.5693 25.8566 70.4789 25.8566 70.359V70.337C25.8566 70.1047 25.7832 69.9249 25.6365 69.7978C25.4922 69.6706 25.2868 69.607 25.0202 69.607C24.739 69.607 24.5152 69.6694 24.3489 69.7941C24.1826 69.9164 24.0726 70.0704 24.0188 70.2563L22.5734 70.1389C22.6468 69.7965 22.7911 69.5006 23.0063 69.2512C23.2215 68.9993 23.4991 68.8061 23.839 68.6716C24.1814 68.5346 24.5776 68.4662 25.0276 68.4662C25.3406 68.4662 25.6402 68.5028 25.9263 68.5762C26.2149 68.6496 26.4704 68.7633 26.693 68.9174C26.918 69.0714 27.0953 69.2695 27.2249 69.5116C27.3545 69.7513 27.4193 70.0387 27.4193 70.3737V74.1741H25.9373V73.3928H25.8933C25.8028 73.5688 25.6818 73.7241 25.5301 73.8586C25.3785 73.9907 25.1963 74.0946 24.9835 74.1704C24.7708 74.2438 24.525 74.2805 24.2462 74.2805ZM24.6937 73.202C24.9236 73.202 25.1266 73.1568 25.3027 73.0663C25.4788 72.9733 25.6169 72.8486 25.7172 72.6921C25.8175 72.5356 25.8676 72.3583 25.8676 72.1602V71.5622C25.8187 71.594 25.7515 71.6234 25.6659 71.6503C25.5827 71.6747 25.4886 71.698 25.3834 71.72C25.2782 71.7396 25.1731 71.7579 25.0679 71.775C24.9628 71.7897 24.8674 71.8031 24.7818 71.8154C24.5984 71.8423 24.4382 71.8851 24.3012 71.9438C24.1643 72.0024 24.0579 72.0819 23.9821 72.1822C23.9063 72.28 23.8684 72.4023 23.8684 72.549C23.8684 72.7618 23.9454 72.9244 24.0995 73.0369C24.256 73.147 24.4541 73.202 24.6937 73.202ZM27.9008 67.9709V66.6613H34.071V67.9709H31.7709V74.1741H30.2009V67.9709H27.9008ZM35.8978 74.2805C35.5383 74.2805 35.2179 74.2181 34.9367 74.0934C34.6555 73.9662 34.4329 73.7792 34.2691 73.5322C34.1077 73.2827 34.027 72.9721 34.027 72.6004C34.027 72.2874 34.0844 72.0245 34.1994 71.8117C34.3143 71.5989 34.4708 71.4277 34.6689 71.2981C34.867 71.1685 35.092 71.0707 35.3439 71.0047C35.5982 70.9386 35.8648 70.8922 36.1436 70.8653C36.4713 70.831 36.7354 70.7992 36.936 70.7699C37.1365 70.7381 37.282 70.6916 37.3725 70.6305C37.463 70.5693 37.5082 70.4789 37.5082 70.359V70.337C37.5082 70.1047 37.4349 69.9249 37.2881 69.7978C37.1438 69.6706 36.9384 69.607 36.6718 69.607C36.3906 69.607 36.1668 69.6694 36.0005 69.7941C35.8342 69.9164 35.7242 70.0704 35.6704 70.2563L34.225 70.1389C34.2984 69.7965 34.4427 69.5006 34.6579 69.2512C34.8731 68.9993 35.1507 68.8061 35.4906 68.6716C35.833 68.5346 36.2292 68.4662 36.6792 68.4662C36.9922 68.4662 37.2918 68.5028 37.5779 68.5762C37.8665 68.6496 38.1221 68.7633 38.3446 68.9174C38.5696 69.0714 38.7469 69.2695 38.8765 69.5116C39.0061 69.7513 39.0709 70.0387 39.0709 70.3737V74.1741H37.5889V73.3928H37.5449C37.4544 73.5688 37.3334 73.7241 37.1817 73.8586C37.0301 73.9907 36.8479 74.0946 36.6352 74.1704C36.4224 74.2438 36.1766 74.2805 35.8978 74.2805ZM36.3454 73.202C36.5752 73.202 36.7782 73.1568 36.9543 73.0663C37.1304 72.9733 37.2686 72.8486 37.3688 72.6921C37.4691 72.5356 37.5192 72.3583 37.5192 72.1602V71.5622C37.4703 71.594 37.4031 71.6234 37.3175 71.6503C37.2343 71.6747 37.1402 71.698 37.035 71.72C36.9298 71.7396 36.8247 71.7579 36.7195 71.775C36.6144 71.7897 36.519 71.8031 36.4334 71.8154C36.25 71.8423 36.0898 71.8851 35.9528 71.9438C35.8159 72.0024 35.7095 72.0819 35.6337 72.1822C35.5579 72.28 35.52 72.4023 35.52 72.549C35.52 72.7618 35.597 72.9244 35.7511 73.0369C35.9076 73.147 36.1057 73.202 36.3454 73.202ZM44.3882 68.822C44.3589 68.5261 44.2329 68.2962 44.0104 68.1323C43.7878 67.9685 43.4858 67.8866 43.1043 67.8866C42.8451 67.8866 42.6262 67.9232 42.4477 67.9966C42.2691 68.0675 42.1322 68.1666 42.0368 68.2937C41.9439 68.4209 41.8974 68.5652 41.8974 68.7266C41.8925 68.8611 41.9206 68.9785 41.9818 69.0788C42.0454 69.179 42.1322 69.2659 42.2422 69.3392C42.3523 69.4101 42.4795 69.4725 42.6237 69.5263C42.768 69.5777 42.9221 69.6217 43.086 69.6584L43.7609 69.8198C44.0886 69.8931 44.3894 69.991 44.6634 70.1132C44.9373 70.2355 45.1745 70.3859 45.375 70.5645C45.5756 70.743 45.7308 70.9533 45.8409 71.1954C45.9534 71.4375 46.0109 71.7151 46.0133 72.0281C46.0109 72.4879 45.8935 72.8865 45.6611 73.224C45.4313 73.5591 45.0987 73.8195 44.6634 74.0054C44.2305 74.1888 43.7084 74.2805 43.097 74.2805C42.4905 74.2805 41.9622 74.1876 41.5122 74.0017C41.0647 73.8158 40.715 73.5407 40.4631 73.1763C40.2136 72.8095 40.0828 72.3558 40.0706 71.8154H41.6076C41.6247 72.0673 41.6969 72.2776 41.824 72.4463C41.9537 72.6126 42.1261 72.7386 42.3413 72.8242C42.5589 72.9073 42.8047 72.9489 43.0786 72.9489C43.3476 72.9489 43.5812 72.9098 43.7793 72.8315C43.9798 72.7532 44.1351 72.6444 44.2452 72.505C44.3552 72.3656 44.4102 72.2054 44.4102 72.0245C44.4102 71.8557 44.3601 71.7139 44.2598 71.5989C44.162 71.484 44.0177 71.3862 43.827 71.3055C43.6387 71.2248 43.4076 71.1514 43.1336 71.0854L42.3156 70.8799C41.6822 70.7259 41.1821 70.485 40.8152 70.1573C40.4484 69.8296 40.2662 69.3881 40.2687 68.833C40.2662 68.3781 40.3873 67.9807 40.6318 67.6408C40.8788 67.3008 41.2175 67.0355 41.648 66.8447C42.0784 66.654 42.5675 66.5586 43.1153 66.5586C43.6729 66.5586 44.1596 66.654 44.5753 66.8447C44.9935 67.0355 45.3188 67.3008 45.5511 67.6408C45.7834 67.9807 45.9033 68.3744 45.9106 68.822H44.3882ZM46.6415 66.6613H48.4207L50.1338 69.8968H50.2072L51.9203 66.6613H53.6994L50.9592 71.5182V74.1741H49.3818V71.5182L46.6415 66.6613ZM60.8509 66.6613V74.1741H59.4789L56.2104 69.4456H56.1554V74.1741H54.567V66.6613H55.961L59.2038 71.3862H59.2698V66.6613H60.8509ZM68.792 69.2915H67.1852C67.1559 69.0837 67.096 68.899 67.0055 68.7376C66.915 68.5738 66.7988 68.4344 66.657 68.3194C66.5151 68.2045 66.3513 68.1164 66.1654 68.0553C65.982 67.9942 65.7827 67.9636 65.5675 67.9636C65.1786 67.9636 64.8399 68.0602 64.5513 68.2534C64.2628 68.4441 64.039 68.7229 63.88 69.0898C63.7211 69.4542 63.6416 69.8968 63.6416 70.4177C63.6416 70.9533 63.7211 71.4033 63.88 71.7677C64.0414 72.1321 64.2664 72.4072 64.555 72.5931C64.8436 72.7789 65.1774 72.8719 65.5565 72.8719C65.7692 72.8719 65.9661 72.8437 66.1471 72.7875C66.3305 72.7312 66.4931 72.6493 66.635 72.5417C66.7768 72.4316 66.8942 72.2984 66.9871 72.1418C67.0825 71.9853 67.1485 71.8068 67.1852 71.6063L68.792 71.6136C68.7504 71.9584 68.6464 72.291 68.4801 72.6114C68.3163 72.9293 68.095 73.2142 67.8162 73.4661C67.5398 73.7156 67.2097 73.9137 66.8257 74.0604C66.4442 74.2047 66.0126 74.2768 65.5308 74.2768C64.8607 74.2768 64.2615 74.1252 63.7333 73.822C63.2075 73.5187 62.7918 73.0797 62.4861 72.505C62.1828 71.9303 62.0312 71.2345 62.0312 70.4177C62.0312 69.5985 62.1852 68.9015 62.4934 68.3268C62.8015 67.752 63.2197 67.3143 63.748 67.0135C64.2762 66.7102 64.8705 66.5586 65.5308 66.5586C65.9661 66.5586 66.3696 66.6197 66.7413 66.742C67.1155 66.8643 67.4469 67.0428 67.7355 67.2776C68.024 67.5099 68.2588 67.7948 68.4398 68.1323C68.6232 68.4698 68.7406 68.8562 68.792 69.2915Z" fill="url(#paint0_linear_447_3419)"/>
</g>
<defs>
<linearGradient id="paint0_linear_447_3419" x1="5.61143" y1="78.5037" x2="53.4854" y2="63.6149" gradientUnits="userSpaceOnUse">
<stop stop-color="#81365F"/>
<stop offset="1" stop-color="#CE1949"/>
</linearGradient>
<clipPath id="clip0_447_3419">
<rect width="84" height="78" fill="white"/>
</clipPath>
</defs>
</svg>
