<?xml version="1.0" encoding="UTF-8" standalone="no"?> <svg width="48" height="48" viewBox="0 0 48 48" fill="none" xmlns="http://www.w3.org/2000/svg">
<path fill-rule="evenodd" clip-rule="evenodd" d="M24 0C10.7452 0 0 10.7452 0 24C0 37.2548 10.7452 48 24 48C37.2548 48 48 37.2548 48 24C48 10.7452 37.2548 0 24 0ZM9.60003 16.0772L18.295 10.4L24.3789 15.4782L15.6122 20.8915L15.6122 20.8915L9.60003 16.0772ZM15.6122 20.8915L15.6122 20.8916L15.6122 20.8915L24.3791 26.3051L33.1463 20.8917L39.1582 25.7063L30.4633 31.3835L24.3792 26.3052L18.2949 31.3836L9.6 25.7064L15.6122 20.8915ZM39.1583 16.0772L30.4634 10.4L24.3792 15.4781L33.1462 20.8915L39.1583 16.0772ZM18.2951 32.4611L24.397 27.3976L30.499 32.4611L33.1103 30.7563V32.6675L24.397 37.8925L15.6838 32.6675V30.7563L18.2951 32.4611Z" fill="black"/>
</svg>
