<svg width="49" height="48" viewBox="0 0 49 48" fill="none" xmlns="http://www.w3.org/2000/svg">
<path d="M29.9576 17.8816H30.9576V16.8816V13.0872V12.0872H29.9576H26.4944C22.9713 12.0872 20.5408 15.0918 20.5408 18.5424V19.64H17.8328H16.8328V20.64V24.2064V25.2064H17.8328H20.5408V34.9128V35.9128H21.5408H25.628H26.628V34.9128V25.2064H29.3048H30.1378L30.2883 24.3871L30.9435 20.8207L31.1604 19.64H29.96H26.628V18.1392C26.628 18.0266 26.6552 17.9391 26.6841 17.8816H29.9576ZM2.45996 24C2.45996 11.8274 12.3274 1.95996 24.5 1.95996C36.6725 1.95996 46.54 11.8274 46.54 24C46.54 36.1725 36.6725 46.04 24.5 46.04C12.3274 46.04 2.45996 36.1725 2.45996 24Z" stroke="#F2F3F8" stroke-width="2"/>
</svg>
