<?xml version="1.0" encoding="iso-8859-1"?>
<!-- Generator: Adobe Illustrator 19.0.0, SVG Export Plug-In . SVG Version: 6.00 Build 0)  -->
<svg version="1.1" id="Layer_1" xmlns="http://www.w3.org/2000/svg" xmlns:xlink="http://www.w3.org/1999/xlink" x="0px" y="0px"
	 viewBox="0 0 512 512" style="enable-background:new 0 0 512 512;" xml:space="preserve">
<g>
	<g>
		<path d="M437.019,74.982C388.667,26.628,324.379,0,256,0S123.333,26.628,74.981,74.982C26.628,123.333,0,187.621,0,256
			s26.628,132.667,74.981,181.019C123.333,485.372,187.621,512,256,512s132.667-26.628,181.019-74.982
			C485.372,388.667,512,324.379,512,256S485.372,123.333,437.019,74.982z M256,495.832C123.756,495.832,16.168,388.244,16.168,256
			S123.756,16.168,256,16.168S495.832,123.756,495.832,256S388.244,495.832,256,495.832z"/>
	</g>
</g>
<g>
	<g>
		<path d="M446.02,294.709L305.894,79.13c-1.491-2.294-4.041-3.678-6.778-3.678h-86.232c-2.737,0-5.287,1.384-6.778,3.678
			L65.98,294.709c-1.65,2.539-1.744,5.788-0.241,8.417l43.116,75.453c1.439,2.519,4.118,4.073,7.019,4.073h280.253
			c2.901,0,5.579-1.554,7.019-4.073l43.116-75.453C447.764,300.498,447.67,297.25,446.02,294.709z M294.729,91.621l129.617,199.41
			h-71.264l-29.117-46.245c-2.737-4.346-8.8-5.026-12.431-1.395c-0.039,0.039-0.079,0.079-0.117,0.117
			c-2.642,2.642-3.104,6.762-1.113,9.923l23.674,37.599H178.024L256,167.187l32.875,52.212c2.737,4.346,8.8,5.026,12.431,1.395
			c0.039-0.039,0.079-0.079,0.118-0.117c2.642-2.642,3.104-6.762,1.113-9.923l-75.01-119.132H294.729z M82.224,299.386
			L212.776,98.538l33.671,53.478L116.21,358.862L82.224,299.386z M391.434,366.484H130.517l37.327-59.284h257.467L391.434,366.484z"
			/>
	</g>
</g>
<g>
</g>
<g>
</g>
<g>
</g>
<g>
</g>
<g>
</g>
<g>
</g>
<g>
</g>
<g>
</g>
<g>
</g>
<g>
</g>
<g>
</g>
<g>
</g>
<g>
</g>
<g>
</g>
<g>
</g>
</svg>
