<svg width="52" height="52" viewBox="0 0 52 52" fill="none" xmlns="http://www.w3.org/2000/svg">
<path d="M12 39.5931C14.7465 39.5931 16.973 37.3666 16.973 34.6201C16.973 31.8736 14.7465 29.6471 12 29.6471C9.2535 29.6471 7.02703 31.8736 7.02703 34.6201C7.02703 37.3666 9.2535 39.5931 12 39.5931ZM12 22.3528C14.7465 22.3528 16.973 20.1263 16.973 17.3798C16.973 14.6333 14.7465 12.4069 12 12.4069C9.2535 12.4069 7.02703 14.6333 7.02703 17.3798C7.02703 20.1263 9.2535 22.3528 12 22.3528ZM12.9324 34.6201L12.9324 17.3798L11.0676 17.3798L11.0676 34.6201L12.9324 34.6201Z" fill="#394A60"/>
<rect x="18.8379" y="14.5" width="25.4865" height="5.59459" rx="0.621622" fill="#394A60"/>
<rect x="18.8379" y="23.2026" width="18.027" height="5.59459" rx="0.621622" fill="#394A60"/>
<rect x="18.8379" y="31.9053" width="11.1892" height="5.59459" rx="0.621622" fill="#394A60"/>
</svg>
