<svg width="64" height="32" viewBox="0 0 64 32" fill="none" xmlns="http://www.w3.org/2000/svg">
<path d="M35.581 15.3499L24.512 13.3999V27.8089C24.5121 27.9654 24.5431 28.1204 24.6031 28.265C24.6631 28.4096 24.751 28.5409 24.8618 28.6515C24.9726 28.7621 25.1041 28.8498 25.2487 28.9095C25.3934 28.9693 25.5484 29 25.705 28.9999H44.805C44.9617 29.0003 45.1169 28.9698 45.2618 28.9101C45.4067 28.8505 45.5384 28.7628 45.6494 28.6522C45.7604 28.5416 45.8485 28.4101 45.9087 28.2654C45.9688 28.1207 45.9998 27.9656 46 27.8089V22.4999L35.581 15.3499Z" fill="#185C37"/>
<path d="M35.581 3H25.705C25.5484 2.99987 25.3934 3.03057 25.2487 3.09035C25.1041 3.15014 24.9726 3.23783 24.8618 3.34842C24.751 3.45902 24.6631 3.59035 24.6031 3.73492C24.5431 3.87949 24.5121 4.03446 24.512 4.191V9.5L35.581 16L41.442 17.95L46 16V9.5L35.581 3Z" fill="#21A366"/>
<path d="M24.512 9.5H35.581V16H24.512V9.5Z" fill="#107C41"/>
<path opacity="0.1" d="M32.434 8.19995H24.512V24.45H32.434C32.7496 24.4484 33.052 24.3225 33.2755 24.0996C33.4989 23.8766 33.6256 23.5746 33.628 23.259V9.39095C33.6256 9.07529 33.4989 8.77327 33.2755 8.55034C33.052 8.32741 32.7496 8.20152 32.434 8.19995Z" fill="black"/>
<path opacity="0.2" d="M31.783 8.8501H24.512V25.1001H31.783C32.0986 25.0985 32.401 24.9726 32.6245 24.7497C32.8479 24.5268 32.9746 24.2248 32.977 23.9091V10.0411C32.9746 9.72544 32.8479 9.42342 32.6245 9.20049C32.401 8.97756 32.0986 8.85167 31.783 8.8501Z" fill="black"/>
<path opacity="0.2" d="M31.783 8.8501H24.512V23.8001H31.783C32.0986 23.7985 32.401 23.6726 32.6245 23.4497C32.8479 23.2268 32.9746 22.9248 32.977 22.6091V10.0411C32.9746 9.72544 32.8479 9.42342 32.6245 9.20049C32.401 8.97756 32.0986 8.85167 31.783 8.8501Z" fill="black"/>
<path opacity="0.2" d="M31.132 8.8501H24.512V23.8001H31.132C31.4476 23.7985 31.75 23.6726 31.9735 23.4497C32.1969 23.2268 32.3236 22.9248 32.326 22.6091V10.0411C32.3236 9.72544 32.1969 9.42342 31.9735 9.20049C31.75 8.97756 31.4476 8.85167 31.132 8.8501Z" fill="black"/>
<path d="M19.194 8.8501H31.132C31.4482 8.84983 31.7516 8.97513 31.9755 9.19846C32.1994 9.42179 32.3255 9.72487 32.326 10.0411V21.9591C32.3255 22.2753 32.1994 22.5784 31.9755 22.8017C31.7516 23.0251 31.4482 23.1504 31.132 23.1501H19.194C19.0374 23.1504 18.8822 23.1198 18.7375 23.06C18.5927 23.0003 18.4611 22.9126 18.3502 22.802C18.2393 22.6914 18.1513 22.56 18.0912 22.4154C18.0311 22.2708 18.0001 22.1157 18 21.9591V10.0411C18.0001 9.88448 18.0311 9.72942 18.0912 9.58479C18.1513 9.44015 18.2393 9.30877 18.3502 9.19817C18.4611 9.08756 18.5927 8.99989 18.7375 8.94016C18.8822 8.88044 19.0374 8.84984 19.194 8.8501Z" fill="url(#paint0_linear_402_10017)"/>
<path d="M21.7 19.873L24.211 15.989L21.911 12.127H23.758L25.013 14.6C25.129 14.834 25.213 15.008 25.251 15.124H25.268C25.35 14.936 25.437 14.755 25.528 14.578L26.87 12.131H28.57L26.211 15.971L28.63 19.876H26.821L25.371 17.165C25.3036 17.0484 25.2464 16.9263 25.2 16.8H25.176C25.1337 16.923 25.0773 17.0408 25.008 17.151L23.515 19.873H21.7Z" fill="white"/>
<path d="M44.8061 3H35.5811V9.5H46.0001V4.191C45.9999 4.03438 45.9689 3.87932 45.9088 3.73469C45.8488 3.59005 45.7608 3.45868 45.6499 3.34807C45.539 3.23746 45.4074 3.14979 45.2626 3.09007C45.1178 3.03034 44.9627 2.99974 44.8061 3Z" fill="#33C481"/>
<path d="M35.5811 16H46.0001V22.5H35.5811V16Z" fill="#107C41"/>
<defs>
<linearGradient id="paint0_linear_402_10017" x1="20.494" y1="7.9141" x2="29.832" y2="24.0861" gradientUnits="userSpaceOnUse">
<stop stop-color="#18884F"/>
<stop offset="0.5" stop-color="#117E43"/>
<stop offset="1" stop-color="#0B6631"/>
</linearGradient>
</defs>
</svg>
